<svg xmlns="http://www.w3.org/2000/svg" viewBox="0 0 512 512">
  <rect width="512" height="512" rx="112" fill="#2563eb"/>
  <path fill="#ffffff" d="M432 320h-32v-32c0-17.6-14.4-32-32-32H144c-17.6 0-32 14.4-32 32v32H80c-17.6 0-32 14.4-32 32v64c0 17.6 14.4 32 32 32h16v16c0 17.6 14.4 32 32 32h32c17.6 0 32-14.4 32-32v-16h128v16c0 17.6 14.4 32 32 32h32c17.6 0 32-14.4 32-32v-16h16c17.6 0 32-14.4 32-32v-64c0-17.6-14.4-32-32-32zm-288 64c-17.6 0-32-14.4-32-32s14.4-32 32-32 32 14.4 32 32-14.4 32-32 32zm224 0c-17.6 0-32-14.4-32-32s14.4-32 32-32 32 14.4 32 32-14.4 32-32 32zm-32-160H176c-17.6 0-32-14.4-32-32v-16c0-35.3 28.7-64 64-64h96c35.3 0 64 28.7 64 64v16c0 17.6-14.4 32-32 32z"/>
</svg>
